<?xml version="1.0" encoding="UTF-8"?>
<svg xmlns="http://www.w3.org/2000/svg" xmlns:xlink="http://www.w3.org/1999/xlink" width="22px" height="22px" viewBox="0 0 22 22" version="1.1">
<g id="surface1">
<path style=" stroke:none;fill-rule:nonzero;fill:rgb(0%,82.352941%,41.568627%);fill-opacity:1;" d="M 1.375 4.125 C 1.375 2.605469 2.605469 1.375 4.125 1.375 L 17.875 1.375 C 19.394531 1.375 20.625 2.605469 20.625 4.125 L 20.625 17.875 C 20.625 19.394531 19.394531 20.625 17.875 20.625 L 4.125 20.625 C 2.605469 20.625 1.375 19.394531 1.375 17.875 Z M 1.375 4.125 "/>
<path style=" stroke:none;fill-rule:nonzero;fill:rgb(95.686275%,95.686275%,95.686275%);fill-opacity:1;" d="M 9.105469 15.8125 C 8.839844 15.8125 8.578125 15.714844 8.375 15.515625 L 4.425781 11.636719 C 4.023438 11.242188 4.023438 10.601562 4.425781 10.207031 C 4.828125 9.8125 5.480469 9.8125 5.882812 10.207031 L 9.105469 13.371094 L 16.117188 6.484375 C 16.519531 6.089844 17.171875 6.089844 17.574219 6.484375 C 17.976562 6.878906 17.976562 7.519531 17.574219 7.914062 L 9.832031 15.515625 C 9.632812 15.714844 9.367188 15.8125 9.105469 15.8125 Z M 9.105469 15.8125 "/>
</g>
</svg>
