<svg xmlns="http://www.w3.org/2000/svg" viewBox="0 0 24 24" id="downlaod">
  <path d="m13.3 16.3-.3.3V13c0-.6-.4-1-1-1s-1 .4-1 1v3.6l-.3-.3c-.4-.4-1-.4-1.4 0s-.4 1 0 1.4l2 2c.1.1.2.2.3.2.1.1.3.1.4.1s.3 0 .4-.1c.1-.1.2-.1.3-.2l2-2c.4-.4.4-1 0-1.4s-1-.4-1.4 0z"></path>
  <path d="M19.6 9.6c-.3-.7-.7-1.4-1.3-1.9-1.2-1.2-2.9-1.8-4.6-1.6-.1-.2-.3-.3-.4-.4C12.4 4.6 11 4 9.5 4s-2.9.6-3.9 1.6S4 8 4 9.5v.3c-.2.2-.5.3-.7.6-.9.8-1.3 2-1.3 3.2C2 16 4 18 6.5 18c.6 0 1-.4 1-1s-.4-1-1-1C5.1 16 4 14.9 4 13.5c0-.7.3-1.3.7-1.8.2-.2.5-.4.7-.5.4-.2.7-.6.6-1.1v-.6c0-.9.4-1.8 1-2.5 1.3-1.3 3.6-1.3 4.9 0 .2.2.4.4.5.7.2.4.7.5 1.1.4.4-.1.7-.1 1-.1.9 0 1.8.4 2.5 1 .4.4.7.9.9 1.5.1.3.3.5.6.7.9.4 1.5 1.3 1.5 2.3 0 .7-.3 1.3-.7 1.8-.5.5-1.1.7-1.8.7-.6 0-1 .4-1 1s.4 1 1 1c1.2 0 2.3-.5 3.2-1.3.9-.8 1.3-2 1.3-3.2 0-1.7-.9-3.2-2.4-3.9z"></path>
</svg>
