<svg xmlns="http://www.w3.org/2000/svg" viewBox="0 0 48 48" id="Gmail">
  <g fill="#000000" class="color000000 svgShape">
    <g fill="#000000" class="color000000 svgShape">
      <path fill="#fa5c5c" d="M6,37v3H4a3,3,0,0,1-3-3V11A3,3,0,0,1,4,8H7L24,23,41,8h3a3,3,0,0,1,3,3V37a3,3,0,0,1-3,3H42V13L24,29,6,13Z" class="colorfa5c66 svgShape"></path>
      <polygon fill="#fffdfd" points="42 36 42 40 6 40 6 39.97 6 37 6 13 24 29 42 13 42 36" class="colorf1f2f2 svgShape"></polygon>
      <polygon fill="#fffdfd" points="41 8 24 23 7 8 41 8" class="colorf1f2f2 svgShape"></polygon>
      <path fill="#544747" d="M44,41H4a4,4,0,0,1-4-4V11A4,4,0,0,1,4,7H44a4,4,0,0,1,4,4V37A4,4,0,0,1,44,41ZM4,9a2,2,0,0,0-2,2V37a2,2,0,0,0,2,2H44a2,2,0,0,0,2-2V11a2,2,0,0,0-2-2Z" class="color474c54 svgShape"></path>
      <path fill="#544747" d="M42,37a1,1,0,0,1-1-1V15.227L24.665,29.747a1,1,0,0,1-1.329,0L7,15.227V36a1,1,0,0,1-2,0V13a1,1,0,0,1,1.665-.748L24,27.662l17.335-15.41A1,1,0,0,1,43,13V36A1,1,0,0,1,42,37Z" class="color474c54 svgShape"></path>
      <path fill="#544747" d="M24,24a1,1,0,0,1-.646-.237l-13-11a1,1,0,1,1,1.292-1.526L24,21.69,36.354,11.237a1,1,0,0,1,1.292,1.526l-13,11A1,1,0,0,1,24,24Z" class="color474c54 svgShape"></path>
    </g>
  </g>
</svg>
